<svg xmlns="http://www.w3.org/2000/svg" width="190" height="38" fill="none"><path stroke="#fff" stroke-linecap="round" stroke-linejoin="round" stroke-width="2" d="M26.427 5.667H5.573a2.907 2.907 0 0 0-2.907 2.906v20.854a2.907 2.907 0 0 0 2.907 2.906h20.854a2.907 2.907 0 0 0 2.906-2.906V8.573a2.907 2.907 0 0 0-2.906-2.906ZM9.334 5.667v26.666M22.666 5.667v26.666M2.667 19h26.666M2.667 12.333h6.666M2.667 25.667h6.666M22.666 25.667h6.667M22.666 12.333h6.667"/><path fill="#fff" d="M46.39 7.25V30H42.47V7.25h3.922Zm9.282 9.953v3.11H45.39v-3.11h10.28Zm1.297-9.953v3.125H45.39V7.25h11.578Zm6.781 5.844V30h-3.781V13.094h3.781Zm-4.031-4.438c0-.573.187-1.047.562-1.422.386-.385.917-.578 1.594-.578.667 0 1.193.193 1.578.578.386.375.578.85.578 1.422 0 .563-.193 1.031-.578 1.406-.385.376-.911.563-1.578.563-.677 0-1.208-.188-1.594-.563-.375-.374-.562-.843-.562-1.406ZM71.906 6v24h-3.781V6h3.781Zm7.89 10.531V30h-3.765V13.094h3.547l.219 3.437Zm-.609 4.39-1.28-.015c0-1.166.145-2.244.437-3.234.291-.99.719-1.85 1.281-2.578a5.631 5.631 0 0 1 2.094-1.703c.844-.407 1.818-.61 2.922-.61.77 0 1.474.115 2.109.344a4.181 4.181 0 0 1 1.672 1.047c.479.479.844 1.094 1.094 1.844.26.75.39 1.656.39 2.718V30h-3.765V19.062c0-.822-.125-1.468-.375-1.937a2.078 2.078 0 0 0-1.047-1c-.448-.208-.985-.313-1.61-.313-.708 0-1.312.136-1.812.407-.49.27-.89.64-1.203 1.11a4.97 4.97 0 0 0-.688 1.624 8.511 8.511 0 0 0-.219 1.969Zm10.485-1-1.766.392a9.7 9.7 0 0 1 .422-2.891 7.368 7.368 0 0 1 1.266-2.406 5.938 5.938 0 0 1 2.078-1.641c.823-.396 1.766-.594 2.828-.594.865 0 1.635.12 2.313.36.687.229 1.27.593 1.75 1.093.479.5.843 1.151 1.093 1.954.25.791.375 1.75.375 2.875V30H96.25V19.047c0-.854-.125-1.516-.375-1.985-.24-.468-.583-.791-1.031-.968-.448-.188-.985-.282-1.61-.282-.583 0-1.099.11-1.546.329a3.07 3.07 0 0 0-1.11.89 3.969 3.969 0 0 0-.687 1.297 5.563 5.563 0 0 0-.22 1.594Zm13.516 1.813v-.359c0-1.219.177-2.349.531-3.39.354-1.053.864-1.964 1.531-2.735a6.91 6.91 0 0 1 2.469-1.813c.979-.437 2.083-.656 3.312-.656 1.24 0 2.344.219 3.313.656a6.878 6.878 0 0 1 2.484 1.813c.677.77 1.193 1.682 1.547 2.734.354 1.042.531 2.172.531 3.391v.36c0 1.218-.177 2.348-.531 3.39a8.112 8.112 0 0 1-1.547 2.734 7.165 7.165 0 0 1-2.469 1.813c-.968.427-2.067.64-3.297.64-1.239 0-2.348-.213-3.328-.64a7.171 7.171 0 0 1-2.468-1.813 8.112 8.112 0 0 1-1.547-2.734c-.354-1.042-.531-2.172-.531-3.39Zm3.765-.359v.36c0 .76.078 1.479.235 2.156.156.677.401 1.27.734 1.78.333.511.76.912 1.281 1.204.521.292 1.141.438 1.859.438.698 0 1.303-.146 1.813-.438a3.627 3.627 0 0 0 1.281-1.203c.334-.51.578-1.104.735-1.781a9.03 9.03 0 0 0 .25-2.157v-.359c0-.75-.084-1.458-.25-2.125a5.491 5.491 0 0 0-.75-1.797 3.59 3.59 0 0 0-1.282-1.219c-.51-.302-1.119-.453-1.828-.453-.708 0-1.323.151-1.843.453a3.62 3.62 0 0 0-1.266 1.22 5.67 5.67 0 0 0-.734 1.796 9.249 9.249 0 0 0-.235 2.125Zm22.859-8.281v2.75h-9.531v-2.75h9.531Zm-6.781-4.14h3.766v16.374c0 .521.073.922.219 1.203.156.271.369.453.64.547.271.094.589.14.953.14.261 0 .511-.015.75-.046.24-.031.433-.063.579-.094l.015 2.875a9.559 9.559 0 0 1-1.094.25 8.03 8.03 0 0 1-1.406.11c-.864 0-1.63-.151-2.297-.454-.666-.312-1.187-.817-1.562-1.515s-.563-1.625-.563-2.782V8.953Zm17.141 21.358c-1.25 0-2.38-.203-3.391-.609a7.48 7.48 0 0 1-2.562-1.734 7.689 7.689 0 0 1-1.61-2.61c-.375-1-.562-2.078-.562-3.234V21.5c0-1.323.193-2.52.578-3.594.385-1.073.922-1.99 1.609-2.75.688-.77 1.5-1.36 2.438-1.765a7.579 7.579 0 0 1 3.047-.61c1.208 0 2.265.203 3.172.61.906.406 1.656.979 2.25 1.718.604.73 1.052 1.6 1.343 2.61.302 1.01.454 2.125.454 3.343v1.61h-13.063v-2.703h9.344v-.297a5.292 5.292 0 0 0-.407-1.906 3.235 3.235 0 0 0-1.109-1.438c-.5-.364-1.167-.547-2-.547-.625 0-1.182.136-1.672.406-.479.26-.88.641-1.203 1.141-.323.5-.573 1.104-.75 1.813-.167.698-.25 1.484-.25 2.359v.625a6.9 6.9 0 0 0 .297 2.063 4.92 4.92 0 0 0 .906 1.64c.396.469.875.839 1.438 1.11.562.26 1.203.39 1.922.39.906 0 1.713-.182 2.421-.547a5.546 5.546 0 0 0 1.844-1.547l1.985 1.922a7.76 7.76 0 0 1-1.422 1.532c-.584.479-1.297.87-2.141 1.171-.833.302-1.802.453-2.906.453ZM153.672 6v24h-3.781V6h3.781Zm10.5 7.094-7.36 8.156-4.031 4.125-.984-3.188 3.047-3.765 4.781-5.328h4.547ZM160.438 30l-5.485-7.938 2.375-2.64L164.797 30h-4.359Zm15.656-3.39v-8.063c0-.604-.11-1.125-.328-1.563a2.298 2.298 0 0 0-1-1.015c-.438-.24-.99-.36-1.657-.36-.614 0-1.145.104-1.593.313-.448.208-.797.49-1.047.844-.25.354-.375.755-.375 1.203h-3.75c0-.667.161-1.313.484-1.938.323-.625.792-1.182 1.406-1.672.615-.49 1.349-.875 2.204-1.156.854-.281 1.812-.422 2.874-.422 1.271 0 2.396.214 3.376.64.989.428 1.765 1.074 2.328 1.938.573.854.859 1.928.859 3.22v7.515c0 .77.052 1.463.156 2.078.115.604.276 1.13.485 1.578V30h-3.86c-.177-.406-.317-.922-.422-1.547-.093-.635-.14-1.25-.14-1.844Zm.547-6.891.031 2.328h-2.703c-.698 0-1.313.068-1.844.203-.531.125-.974.313-1.328.563-.354.25-.62.552-.797.906a2.655 2.655 0 0 0-.266 1.203c0 .448.105.86.313 1.234.208.365.51.651.906.86.406.208.896.312 1.469.312.771 0 1.443-.156 2.016-.469.583-.323 1.041-.713 1.374-1.172.334-.468.511-.911.532-1.328l1.218 1.672c-.124.427-.338.886-.64 1.375-.302.49-.698.959-1.188 1.407A5.895 5.895 0 0 1 174 29.89c-.667.28-1.438.422-2.312.422-1.105 0-2.089-.22-2.954-.657-.864-.448-1.541-1.047-2.031-1.797-.489-.76-.734-1.62-.734-2.578 0-.896.166-1.687.5-2.375a4.642 4.642 0 0 1 1.5-1.75c.666-.468 1.479-.823 2.437-1.062.959-.25 2.052-.375 3.282-.375h2.953Z"/></svg>