<svg aria-hidden="true" style="position: absolute; width: 0; height: 0; overflow: hidden;" version="1.1" xmlns="http://www.w3.org/2000/svg" xmlns:xlink="http://www.w3.org/1999/xlink">
<defs>
<symbol id="icon-film-desktop" viewBox="0 0 32 32">
<path fill="none" stroke="#fff" style="stroke: var(--color1, #fff)" stroke-linejoin="round" stroke-linecap="round" stroke-miterlimit="4" stroke-width="2.1695" d="M26.427 2.667h-20.853c-1.605 0-2.907 1.301-2.907 2.907v20.853c0 1.605 1.301 2.907 2.907 2.907h20.853c1.605 0 2.907-1.301 2.907-2.907v-20.853c0-1.605-1.301-2.907-2.907-2.907z"></path>
<path fill="none" stroke="#fff" style="stroke: var(--color1, #fff)" stroke-linejoin="round" stroke-linecap="round" stroke-miterlimit="4" stroke-width="2.1695" d="M9.333 2.667v26.667"></path>
<path fill="none" stroke="#fff" style="stroke: var(--color1, #fff)" stroke-linejoin="round" stroke-linecap="round" stroke-miterlimit="4" stroke-width="2.1695" d="M22.667 2.667v26.667"></path>
<path fill="none" stroke="#fff" style="stroke: var(--color1, #fff)" stroke-linejoin="round" stroke-linecap="round" stroke-miterlimit="4" stroke-width="2.1695" d="M2.667 16h26.667"></path>
<path fill="none" stroke="#fff" style="stroke: var(--color1, #fff)" stroke-linejoin="round" stroke-linecap="round" stroke-miterlimit="4" stroke-width="2.1695" d="M2.667 9.333h6.667"></path>
<path fill="none" stroke="#fff" style="stroke: var(--color1, #fff)" stroke-linejoin="round" stroke-linecap="round" stroke-miterlimit="4" stroke-width="2.1695" d="M2.667 22.667h6.667"></path>
<path fill="none" stroke="#fff" style="stroke: var(--color1, #fff)" stroke-linejoin="round" stroke-linecap="round" stroke-miterlimit="4" stroke-width="2.1695" d="M22.667 22.667h6.667"></path>
<path fill="none" stroke="#fff" style="stroke: var(--color1, #fff)" stroke-linejoin="round" stroke-linecap="round" stroke-miterlimit="4" stroke-width="2.1695" d="M22.667 9.333h6.667"></path>
</symbol>
<symbol id="icon-film-mob" viewBox="0 0 32 32">
<path fill="none" stroke="#fff" style="stroke: var(--color1, #fff)" stroke-linejoin="round" stroke-linecap="round" stroke-miterlimit="4" stroke-width="2" d="M26.427 2.667h-20.853c-1.605 0-2.907 1.301-2.907 2.907v20.853c0 1.605 1.301 2.907 2.907 2.907h20.853c1.605 0 2.907-1.301 2.907-2.907v-20.853c0-1.605-1.301-2.907-2.907-2.907z"></path>
<path fill="none" stroke="#fff" style="stroke: var(--color1, #fff)" stroke-linejoin="round" stroke-linecap="round" stroke-miterlimit="4" stroke-width="2" d="M9.334 2.667v26.667"></path>
<path fill="none" stroke="#fff" style="stroke: var(--color1, #fff)" stroke-linejoin="round" stroke-linecap="round" stroke-miterlimit="4" stroke-width="2" d="M22.666 2.667v26.667"></path>
<path fill="none" stroke="#fff" style="stroke: var(--color1, #fff)" stroke-linejoin="round" stroke-linecap="round" stroke-miterlimit="4" stroke-width="2" d="M2.667 16h26.667"></path>
<path fill="none" stroke="#fff" style="stroke: var(--color1, #fff)" stroke-linejoin="round" stroke-linecap="round" stroke-miterlimit="4" stroke-width="2" d="M2.667 9.333h6.667"></path>
<path fill="none" stroke="#fff" style="stroke: var(--color1, #fff)" stroke-linejoin="round" stroke-linecap="round" stroke-miterlimit="4" stroke-width="2" d="M2.667 22.667h6.667"></path>
<path fill="none" stroke="#fff" style="stroke: var(--color1, #fff)" stroke-linejoin="round" stroke-linecap="round" stroke-miterlimit="4" stroke-width="2" d="M22.666 22.667h6.667"></path>
<path fill="none" stroke="#fff" style="stroke: var(--color1, #fff)" stroke-linejoin="round" stroke-linecap="round" stroke-miterlimit="4" stroke-width="2" d="M22.666 9.333h6.667"></path>
</symbol>
<symbol id="icon-film-tablet" viewBox="0 0 32 32">
<path fill="none" stroke="#fff" style="stroke: var(--color1, #fff)" stroke-linejoin="round" stroke-linecap="round" stroke-miterlimit="4" stroke-width="1.561" d="M26.173 2.992h-20.345c-1.566 0-2.836 1.27-2.836 2.836v20.345c0 1.566 1.27 2.836 2.836 2.836h20.345c1.566 0 2.836-1.27 2.836-2.836v-20.345c0-1.566-1.27-2.836-2.836-2.836z"></path>
<path fill="none" stroke="#fff" style="stroke: var(--color1, #fff)" stroke-linejoin="round" stroke-linecap="round" stroke-miterlimit="4" stroke-width="1.561" d="M9.495 2.992v26.016"></path>
<path fill="none" stroke="#fff" style="stroke: var(--color1, #fff)" stroke-linejoin="round" stroke-linecap="round" stroke-miterlimit="4" stroke-width="1.561" d="M22.505 2.992v26.016"></path>
<path fill="none" stroke="#fff" style="stroke: var(--color1, #fff)" stroke-linejoin="round" stroke-linecap="round" stroke-miterlimit="4" stroke-width="1.561" d="M2.992 16h26.016"></path>
<path fill="none" stroke="#fff" style="stroke: var(--color1, #fff)" stroke-linejoin="round" stroke-linecap="round" stroke-miterlimit="4" stroke-width="1.561" d="M2.992 9.496h6.504"></path>
<path fill="none" stroke="#fff" style="stroke: var(--color1, #fff)" stroke-linejoin="round" stroke-linecap="round" stroke-miterlimit="4" stroke-width="1.561" d="M2.992 22.504h6.504"></path>
<path fill="none" stroke="#fff" style="stroke: var(--color1, #fff)" stroke-linejoin="round" stroke-linecap="round" stroke-miterlimit="4" stroke-width="1.561" d="M22.505 22.504h6.504"></path>
<path fill="none" stroke="#fff" style="stroke: var(--color1, #fff)" stroke-linejoin="round" stroke-linecap="round" stroke-miterlimit="4" stroke-width="1.561" d="M22.505 9.496h6.504"></path>
</symbol>
<symbol id="icon-search" viewBox="0 0 32 32">
<path stroke-linejoin="round" stroke-linecap="round" stroke-miterlimit="4" stroke-width="2" d="M14.667 25.333c5.891 0 10.667-4.776 10.667-10.667s-4.776-10.667-10.667-10.667c-5.891 0-10.667 4.776-10.667 10.667s4.776 10.667 10.667 10.667z"></path>
<path stroke-linejoin="round" stroke-linecap="round" stroke-miterlimit="4" stroke-width="2" d="M28 28l-5.8-5.8"></path>
</symbol>
<symbol id="icon-search-mob" viewBox="0 0 32 32">
<path stroke-linejoin="round" stroke-linecap="round" stroke-miterlimit="4" stroke-width="2.2857" d="M14.667 25.333c5.891 0 10.667-4.776 10.667-10.667s-4.776-10.667-10.667-10.667c-5.891 0-10.667 4.776-10.667 10.667s4.776 10.667 10.667 10.667z"></path>
<path stroke-linejoin="round" stroke-linecap="round" stroke-miterlimit="4" stroke-width="2.2857" d="M27.999 28l-5.8-5.8"></path>
</symbol>
<symbol id="icon-logo" viewBox="0 0 160 32">
<path fill="none" stroke="#fff" style="stroke: var(--color1, #fff)" stroke-linejoin="round" stroke-linecap="round" stroke-miterlimit="4" stroke-width="1.7067" d="M20.789 5.511h-16.405c-1.263 0-2.287 1.024-2.287 2.287v16.405c0 1.263 1.024 2.287 2.287 2.287h16.405c1.263 0 2.287-1.024 2.287-2.287v-16.405c0-1.263-1.024-2.287-2.287-2.287z"></path>
<path fill="none" stroke="#fff" style="stroke: var(--color1, #fff)" stroke-linejoin="round" stroke-linecap="round" stroke-miterlimit="4" stroke-width="1.7067" d="M7.342 5.511v20.978"></path>
<path fill="none" stroke="#fff" style="stroke: var(--color1, #fff)" stroke-linejoin="round" stroke-linecap="round" stroke-miterlimit="4" stroke-width="1.7067" d="M17.831 5.511v20.978"></path>
<path fill="none" stroke="#fff" style="stroke: var(--color1, #fff)" stroke-linejoin="round" stroke-linecap="round" stroke-miterlimit="4" stroke-width="1.7067" d="M2.098 16h20.978"></path>
<path fill="none" stroke="#fff" style="stroke: var(--color1, #fff)" stroke-linejoin="round" stroke-linecap="round" stroke-miterlimit="4" stroke-width="1.7067" d="M2.098 10.756h5.244"></path>
<path fill="none" stroke="#fff" style="stroke: var(--color1, #fff)" stroke-linejoin="round" stroke-linecap="round" stroke-miterlimit="4" stroke-width="1.7067" d="M2.098 21.244h5.244"></path>
<path fill="none" stroke="#fff" style="stroke: var(--color1, #fff)" stroke-linejoin="round" stroke-linecap="round" stroke-miterlimit="4" stroke-width="1.7067" d="M17.831 21.244h5.244"></path>
<path fill="none" stroke="#fff" style="stroke: var(--color1, #fff)" stroke-linejoin="round" stroke-linecap="round" stroke-miterlimit="4" stroke-width="1.7067" d="M17.831 10.756h5.244"></path>
<path fill="#fff" style="fill: var(--color1, #fff)" d="M37.453 5.76v19.413h-3.347v-19.413h3.347zM45.373 14.253v2.653h-8.773v-2.653h8.773zM46.48 5.76v2.667h-9.88v-2.667h9.88zM52.267 10.747v14.427h-3.226v-14.427h3.226zM48.827 6.96c0-0.489 0.16-0.893 0.48-1.213 0.329-0.329 0.782-0.493 1.36-0.493 0.569 0 1.018 0.164 1.347 0.493 0.329 0.32 0.493 0.724 0.493 1.213 0 0.48-0.164 0.88-0.493 1.2s-0.778 0.48-1.347 0.48c-0.578 0-1.031-0.16-1.36-0.48-0.32-0.32-0.48-0.72-0.48-1.2zM59.226 4.693v20.48h-3.226v-20.48h3.226zM65.96 13.68v11.493h-3.214v-14.427h3.027l0.187 2.933zM65.44 17.427l-1.094-0.013c0-0.996 0.125-1.916 0.374-2.76s0.613-1.578 1.093-2.2c0.48-0.631 1.076-1.116 1.787-1.453 0.72-0.347 1.551-0.52 2.493-0.52 0.658 0 1.258 0.098 1.8 0.293 0.551 0.187 1.027 0.484 1.427 0.893 0.409 0.409 0.72 0.933 0.933 1.573 0.222 0.64 0.333 1.413 0.333 2.32v9.613h-3.213v-9.333c0-0.702-0.107-1.253-0.32-1.653-0.204-0.4-0.502-0.684-0.893-0.853-0.382-0.178-0.84-0.267-1.373-0.267-0.605 0-1.12 0.116-1.547 0.347-0.418 0.231-0.76 0.547-1.027 0.947s-0.463 0.862-0.587 1.387c-0.124 0.524-0.186 1.084-0.186 1.68zM74.387 16.573l-1.507 0.333c0-0.871 0.12-1.693 0.36-2.467 0.249-0.782 0.609-1.467 1.080-2.053 0.48-0.596 1.071-1.062 1.773-1.4s1.507-0.507 2.413-0.507c0.738 0 1.396 0.102 1.973 0.307 0.587 0.196 1.085 0.507 1.493 0.933s0.72 0.982 0.933 1.667c0.213 0.676 0.32 1.493 0.32 2.453v9.333h-3.226v-9.347c0-0.729-0.107-1.293-0.32-1.693-0.204-0.4-0.498-0.676-0.88-0.827-0.382-0.16-0.84-0.24-1.373-0.24-0.498 0-0.938 0.093-1.32 0.28-0.373 0.178-0.689 0.431-0.947 0.76-0.258 0.32-0.453 0.689-0.587 1.107-0.124 0.418-0.186 0.871-0.186 1.36zM85.92 18.12v-0.307c0-1.040 0.151-2.004 0.454-2.893 0.302-0.898 0.738-1.676 1.306-2.333 0.578-0.667 1.28-1.182 2.107-1.547 0.835-0.373 1.778-0.56 2.826-0.56 1.058 0 2 0.187 2.827 0.56 0.835 0.364 1.542 0.88 2.12 1.547 0.578 0.658 1.018 1.436 1.32 2.333 0.302 0.889 0.453 1.853 0.453 2.893v0.307c0 1.040-0.151 2.004-0.453 2.893s-0.742 1.667-1.32 2.333c-0.578 0.658-1.28 1.173-2.106 1.547-0.827 0.364-1.765 0.547-2.813 0.547-1.058 0-2.004-0.182-2.84-0.547-0.827-0.373-1.529-0.889-2.107-1.547-0.578-0.667-1.018-1.444-1.32-2.333s-0.454-1.853-0.454-2.893zM89.133 17.813v0.307c0 0.649 0.067 1.262 0.2 1.84s0.342 1.084 0.627 1.52c0.284 0.436 0.649 0.778 1.093 1.027s0.974 0.373 1.587 0.373c0.596 0 1.111-0.124 1.547-0.373 0.445-0.249 0.809-0.591 1.093-1.027s0.494-0.942 0.627-1.52c0.142-0.578 0.213-1.191 0.213-1.84v-0.307c0-0.64-0.071-1.244-0.213-1.813-0.133-0.578-0.346-1.089-0.64-1.533-0.284-0.444-0.649-0.791-1.093-1.040-0.436-0.258-0.956-0.387-1.56-0.387s-1.129 0.129-1.573 0.387c-0.436 0.249-0.796 0.596-1.080 1.040s-0.493 0.956-0.627 1.533c-0.134 0.569-0.2 1.173-0.2 1.813zM108.64 10.747v2.347h-8.134v-2.347h8.134zM102.853 7.213h3.214v13.973c0 0.444 0.062 0.787 0.186 1.027 0.134 0.231 0.316 0.387 0.547 0.467s0.503 0.12 0.814 0.12c0.222 0 0.436-0.013 0.64-0.040s0.369-0.053 0.493-0.080l0.013 2.453c-0.267 0.080-0.578 0.151-0.933 0.213-0.347 0.062-0.747 0.093-1.2 0.093-0.738 0-1.391-0.129-1.96-0.387-0.569-0.267-1.013-0.698-1.333-1.293s-0.48-1.387-0.48-2.373v-14.173zM117.48 25.44c-1.067 0-2.031-0.173-2.894-0.52-0.853-0.356-1.582-0.849-2.186-1.48-0.596-0.631-1.053-1.373-1.373-2.227s-0.48-1.773-0.48-2.76v-0.533c0-1.129 0.164-2.151 0.493-3.067s0.787-1.698 1.373-2.347c0.587-0.658 1.28-1.16 2.080-1.507s1.667-0.52 2.6-0.52c1.031 0 1.933 0.173 2.706 0.52s1.414 0.836 1.92 1.467c0.516 0.622 0.898 1.364 1.147 2.227 0.258 0.862 0.387 1.813 0.387 2.853v1.373h-11.147v-2.307h7.974v-0.253c-0.018-0.578-0.134-1.12-0.347-1.627-0.204-0.507-0.52-0.916-0.947-1.227s-0.995-0.467-1.707-0.467c-0.533 0-1.009 0.116-1.427 0.347-0.409 0.222-0.751 0.547-1.027 0.973s-0.489 0.942-0.64 1.547c-0.142 0.596-0.213 1.267-0.213 2.013v0.533c0 0.631 0.084 1.218 0.253 1.76 0.178 0.533 0.436 1 0.773 1.4s0.747 0.716 1.227 0.947c0.48 0.222 1.027 0.333 1.64 0.333 0.774 0 1.462-0.156 2.067-0.467s1.129-0.751 1.573-1.32l1.693 1.64c-0.311 0.453-0.716 0.889-1.213 1.307-0.498 0.409-1.107 0.742-1.827 1-0.711 0.258-1.538 0.387-2.48 0.387zM129 4.693v20.48h-3.227v-20.48h3.227zM137.96 10.747l-6.28 6.96-3.44 3.52-0.84-2.72 2.6-3.213 4.080-4.547h3.88zM134.773 25.173l-4.68-6.773 2.027-2.253 6.374 9.027h-3.72zM148.134 22.28v-6.88c0-0.516-0.093-0.96-0.28-1.333s-0.471-0.662-0.853-0.867c-0.373-0.204-0.844-0.307-1.413-0.307-0.524 0-0.978 0.089-1.36 0.267s-0.68 0.418-0.893 0.72c-0.213 0.302-0.32 0.644-0.32 1.027h-3.2c0-0.569 0.137-1.12 0.413-1.653s0.676-1.009 1.2-1.427c0.524-0.418 1.151-0.747 1.88-0.987s1.547-0.36 2.453-0.36c1.085 0 2.045 0.182 2.88 0.547 0.844 0.364 1.507 0.916 1.987 1.653 0.489 0.729 0.733 1.644 0.733 2.747v6.413c0 0.658 0.044 1.249 0.133 1.773 0.098 0.516 0.236 0.964 0.413 1.347v0.213h-3.293c-0.151-0.347-0.271-0.787-0.36-1.32-0.080-0.542-0.12-1.067-0.12-1.573zM148.6 16.4l0.027 1.987h-2.307c-0.596 0-1.12 0.058-1.574 0.173-0.453 0.107-0.831 0.267-1.133 0.48s-0.529 0.471-0.68 0.773-0.227 0.644-0.227 1.027c0 0.382 0.089 0.733 0.267 1.053 0.178 0.311 0.436 0.556 0.773 0.733 0.347 0.178 0.765 0.267 1.254 0.267 0.657 0 1.231-0.133 1.72-0.4 0.498-0.276 0.889-0.609 1.173-1 0.285-0.4 0.436-0.778 0.454-1.133l1.040 1.427c-0.107 0.364-0.289 0.756-0.547 1.173s-0.596 0.818-1.013 1.2c-0.409 0.373-0.902 0.68-1.48 0.92-0.569 0.24-1.227 0.36-1.973 0.36-0.942 0-1.782-0.187-2.52-0.56-0.738-0.382-1.316-0.893-1.734-1.533-0.418-0.649-0.626-1.382-0.626-2.2 0-0.764 0.142-1.44 0.427-2.027 0.293-0.596 0.72-1.093 1.28-1.493 0.569-0.4 1.262-0.702 2.080-0.907 0.818-0.213 1.751-0.32 2.8-0.32h2.52z"></path>
</symbol>
<symbol id="icon-logo-mob" viewBox="0 0 160 32">
<path fill="none" stroke="#fff" style="stroke: var(--color1, #fff)" stroke-linejoin="round" stroke-linecap="round" stroke-miterlimit="4" stroke-width="1.6842" d="M22.254 4.772h-17.561c-1.352 0-2.448 1.096-2.448 2.448v17.561c0 1.352 1.096 2.448 2.448 2.448h17.561c1.352 0 2.448-1.096 2.448-2.448v-17.561c0-1.352-1.096-2.448-2.448-2.448z"></path>
<path fill="none" stroke="#fff" style="stroke: var(--color1, #fff)" stroke-linejoin="round" stroke-linecap="round" stroke-miterlimit="4" stroke-width="1.6842" d="M7.86 4.772v22.456"></path>
<path fill="none" stroke="#fff" style="stroke: var(--color1, #fff)" stroke-linejoin="round" stroke-linecap="round" stroke-miterlimit="4" stroke-width="1.6842" d="M19.088 4.772v22.456"></path>
<path fill="none" stroke="#fff" style="stroke: var(--color1, #fff)" stroke-linejoin="round" stroke-linecap="round" stroke-miterlimit="4" stroke-width="1.6842" d="M2.245 16h22.456"></path>
<path fill="none" stroke="#fff" style="stroke: var(--color1, #fff)" stroke-linejoin="round" stroke-linecap="round" stroke-miterlimit="4" stroke-width="1.6842" d="M2.245 10.386h5.614"></path>
<path fill="none" stroke="#fff" style="stroke: var(--color1, #fff)" stroke-linejoin="round" stroke-linecap="round" stroke-miterlimit="4" stroke-width="1.6842" d="M2.245 21.614h5.614"></path>
<path fill="none" stroke="#fff" style="stroke: var(--color1, #fff)" stroke-linejoin="round" stroke-linecap="round" stroke-miterlimit="4" stroke-width="1.6842" d="M19.088 21.614h5.614"></path>
<path fill="none" stroke="#fff" style="stroke: var(--color1, #fff)" stroke-linejoin="round" stroke-linecap="round" stroke-miterlimit="4" stroke-width="1.6842" d="M19.088 10.386h5.614"></path>
<path fill="#fff" style="fill: var(--color1, #fff)" d="M39.066 6.105v19.158h-3.303v-19.158h3.303zM46.882 14.487v2.618h-8.658v-2.618h8.658zM47.974 6.105v2.632h-9.75v-2.632h9.75zM53.684 11.026v14.237h-3.184v-14.237h3.184zM50.29 7.289c0-0.482 0.158-0.882 0.474-1.197 0.325-0.325 0.772-0.487 1.342-0.487 0.561 0 1.004 0.162 1.329 0.487 0.325 0.316 0.487 0.715 0.487 1.197 0 0.474-0.162 0.868-0.487 1.184s-0.767 0.474-1.329 0.474c-0.57 0-1.018-0.158-1.342-0.474-0.316-0.316-0.474-0.711-0.474-1.184zM60.553 5.053v20.211h-3.184v-20.211h3.184zM67.197 13.921v11.342h-3.171v-14.237h2.987l0.184 2.895zM66.684 17.618l-1.079-0.013c0-0.982 0.123-1.89 0.368-2.724s0.605-1.557 1.079-2.171c0.474-0.623 1.061-1.101 1.763-1.434 0.71-0.342 1.531-0.513 2.46-0.513 0.649 0 1.241 0.097 1.776 0.29 0.544 0.184 1.013 0.478 1.408 0.882 0.403 0.403 0.71 0.921 0.921 1.553 0.219 0.632 0.329 1.395 0.329 2.29v9.487h-3.171v-9.211c0-0.693-0.105-1.237-0.316-1.632-0.202-0.395-0.496-0.675-0.882-0.842-0.377-0.175-0.829-0.263-1.355-0.263-0.597 0-1.105 0.114-1.526 0.342-0.412 0.228-0.75 0.539-1.013 0.934s-0.456 0.851-0.579 1.368c-0.123 0.518-0.184 1.070-0.184 1.658zM75.513 16.776l-1.487 0.329c0-0.86 0.118-1.671 0.355-2.434 0.246-0.772 0.601-1.447 1.066-2.026 0.474-0.588 1.057-1.048 1.75-1.382s1.487-0.5 2.382-0.5c0.728 0 1.377 0.101 1.947 0.303 0.579 0.193 1.070 0.5 1.474 0.921s0.71 0.969 0.921 1.645c0.211 0.667 0.316 1.474 0.316 2.421v9.211h-3.184v-9.224c0-0.719-0.105-1.276-0.316-1.671-0.202-0.395-0.491-0.667-0.868-0.816-0.377-0.158-0.829-0.237-1.355-0.237-0.491 0-0.925 0.092-1.303 0.276-0.368 0.175-0.68 0.425-0.934 0.75-0.254 0.316-0.447 0.68-0.579 1.092-0.123 0.412-0.184 0.86-0.184 1.342zM86.895 18.303v-0.303c0-1.026 0.149-1.978 0.447-2.855 0.298-0.886 0.728-1.654 1.289-2.303 0.57-0.658 1.263-1.167 2.079-1.526 0.824-0.368 1.754-0.553 2.789-0.553 1.044 0 1.974 0.184 2.79 0.553 0.824 0.36 1.522 0.868 2.092 1.526 0.57 0.649 1.005 1.417 1.303 2.303 0.298 0.877 0.447 1.829 0.447 2.855v0.303c0 1.026-0.149 1.978-0.447 2.855s-0.733 1.645-1.303 2.303c-0.57 0.649-1.263 1.158-2.079 1.526-0.815 0.36-1.741 0.539-2.776 0.539-1.043 0-1.977-0.18-2.803-0.539-0.815-0.368-1.508-0.877-2.078-1.526-0.57-0.658-1.005-1.425-1.303-2.303s-0.447-1.829-0.447-2.855zM90.066 18v0.303c0 0.64 0.066 1.246 0.198 1.816s0.338 1.070 0.618 1.5 0.64 0.767 1.079 1.013c0.439 0.246 0.961 0.368 1.565 0.368 0.588 0 1.097-0.123 1.527-0.368 0.439-0.246 0.798-0.583 1.079-1.013s0.487-0.93 0.619-1.5c0.14-0.57 0.211-1.175 0.211-1.816v-0.303c0-0.632-0.071-1.228-0.211-1.789-0.132-0.57-0.343-1.075-0.632-1.513-0.281-0.439-0.641-0.781-1.080-1.026-0.429-0.254-0.942-0.382-1.539-0.382s-1.114 0.127-1.552 0.382c-0.43 0.246-0.786 0.588-1.066 1.026s-0.487 0.943-0.618 1.513c-0.132 0.561-0.198 1.158-0.198 1.789zM109.315 11.026v2.316h-8.026v-2.316h8.026zM103.605 7.539h3.171v13.789c0 0.439 0.061 0.776 0.184 1.013 0.131 0.228 0.311 0.382 0.539 0.461s0.496 0.118 0.803 0.118c0.22 0 0.43-0.013 0.632-0.040s0.365-0.053 0.488-0.079l0.013 2.421c-0.263 0.079-0.57 0.149-0.921 0.211-0.342 0.061-0.737 0.092-1.184 0.092-0.728 0-1.373-0.127-1.934-0.382-0.561-0.263-1-0.689-1.315-1.276s-0.474-1.368-0.474-2.342v-13.987zM118.040 25.526c-1.053 0-2.004-0.171-2.856-0.513-0.842-0.351-1.561-0.838-2.157-1.46-0.588-0.623-1.040-1.355-1.356-2.197s-0.473-1.75-0.473-2.724v-0.526c0-1.114 0.163-2.123 0.487-3.026s0.776-1.675 1.355-2.316c0.579-0.649 1.263-1.145 2.053-1.487s1.645-0.513 2.566-0.513c1.017 0 1.907 0.171 2.671 0.513s1.395 0.825 1.895 1.447c0.509 0.614 0.886 1.346 1.131 2.197 0.254 0.851 0.382 1.789 0.382 2.816v1.355h-11v-2.276h7.869v-0.25c-0.018-0.57-0.132-1.105-0.343-1.605-0.201-0.5-0.513-0.903-0.934-1.211s-0.983-0.461-1.684-0.461c-0.526 0-0.995 0.114-1.408 0.342-0.403 0.219-0.741 0.539-1.013 0.96s-0.483 0.93-0.632 1.526c-0.141 0.588-0.211 1.25-0.211 1.987v0.526c0 0.623 0.083 1.202 0.25 1.737 0.175 0.526 0.429 0.987 0.763 1.382s0.737 0.706 1.211 0.934c0.473 0.219 1.013 0.329 1.619 0.329 0.763 0 1.443-0.154 2.039-0.461s1.114-0.741 1.553-1.303l1.672 1.618c-0.307 0.447-0.707 0.877-1.197 1.29-0.492 0.404-1.092 0.732-1.803 0.987-0.701 0.254-1.517 0.382-2.447 0.382zM129.408 5.053v20.211h-3.184v-20.211h3.184zM138.25 11.026l-6.198 6.868-3.395 3.474-0.829-2.684 2.566-3.171 4.026-4.487h3.829zM135.106 25.263l-4.619-6.684 2-2.224 6.29 8.908h-3.671zM148.29 22.408v-6.789c0-0.509-0.093-0.947-0.276-1.316s-0.465-0.654-0.842-0.855c-0.369-0.202-0.834-0.303-1.395-0.303-0.517 0-0.964 0.088-1.341 0.263s-0.671 0.412-0.882 0.71c-0.211 0.298-0.316 0.636-0.316 1.013h-3.158c0-0.561 0.136-1.105 0.408-1.632s0.667-0.996 1.184-1.408c0.518-0.412 1.136-0.737 1.856-0.974s1.526-0.355 2.42-0.355c1.070 0 2.018 0.18 2.843 0.54 0.833 0.36 1.486 0.903 1.96 1.632 0.483 0.719 0.723 1.623 0.723 2.71v6.329c0 0.649 0.044 1.232 0.131 1.75 0.097 0.509 0.232 0.952 0.408 1.329v0.211h-3.251c-0.149-0.342-0.267-0.776-0.355-1.303-0.078-0.535-0.118-1.053-0.118-1.553zM148.75 16.605l0.026 1.96h-2.276c-0.588 0-1.106 0.057-1.553 0.171-0.447 0.105-0.82 0.263-1.118 0.474s-0.522 0.465-0.671 0.763c-0.149 0.298-0.224 0.636-0.224 1.013s0.088 0.724 0.264 1.039c0.175 0.307 0.429 0.548 0.763 0.724 0.342 0.175 0.755 0.263 1.237 0.263 0.649 0 1.215-0.132 1.698-0.395 0.491-0.272 0.877-0.601 1.157-0.987 0.281-0.395 0.43-0.768 0.448-1.118l1.026 1.408c-0.104 0.36-0.285 0.746-0.539 1.158s-0.588 0.807-1 1.184c-0.403 0.368-0.89 0.671-1.46 0.908-0.562 0.237-1.211 0.355-1.947 0.355-0.931 0-1.759-0.184-2.488-0.553-0.728-0.377-1.298-0.882-1.71-1.513-0.412-0.64-0.618-1.364-0.618-2.171 0-0.754 0.14-1.421 0.421-2 0.289-0.588 0.71-1.079 1.263-1.474 0.561-0.395 1.245-0.693 2.052-0.895 0.808-0.211 1.728-0.316 2.764-0.316h2.487z"></path>
</symbol>
</defs>
</svg>
